<svg id="Capa_1" data-name="Capa 1" xmlns="http://www.w3.org/2000/svg" viewBox="0 0 446.15 64.81"><defs><style>.cls-1{fill:#344e41;}</style></defs><title>logo</title><path class="cls-1" d="M18.43,10.1c-.85.65-1.5,14.8-1.5,31.11V71l6-.65c5.14-.65,5.79-1.5,5.79-9.22,0-6.43.85-8.8,3.65-9.22,3-.65,4.5,1.72,6.43,9,2.15,8.15,3.43,9.87,7.5,9.87,6,0,6.43-5.15,1.72-16.3-2.79-6.87-2.79-8.15,0-12.22,1.93-2.79,3.22-9.44,3.22-16.09,0-10.94-.22-11.58-7.5-14.59C36.23,8.6,20.78,7.53,18.43,10.1ZM40.74,21.9c.43,10.3-.65,15.66-4.07,18.24-7.08,5.58-9,3.43-9-10.08V17.18H34.1C39.23,17.18,40.52,18,40.74,21.9Zm8.36,6a2.35,2.35,0,0,1-2.36,2.15c-1.07,0-1.5-1.07-.85-2.15.65-1.28,1.72-2.15,2.36-2.15C48.67,25.76,49.1,26.62,49.1,27.9ZM25.92,51.5c-2.56,2.57-4.71,3.87-4.71,3,0-2.15,7.3-9,8.36-8.15C30.22,46.78,28.5,49.14,25.92,51.5Z" transform="translate(-16.93 -8.59)"/><path class="cls-1" d="M60.68,11.39c-.43,1.5-.65,15.66-.43,31.54l.65,28.53,5.37.65C76.56,73.16,92,70.38,92,67.38c0-1.72-3.43-3-10.08-3.43-8.8-.65-10.3-1.28-10.94-5.58C69.91,51.5,74.2,47.22,81.5,47.22c4.07,0,6.22-1.07,6.22-3.22,0-2.36-2.36-3.22-8.58-3.22H70.56V17.18L79.78,17A80.81,80.81,0,0,1,90.5,17c.85,0,1.5-1.72,1.5-4.07C92,9,90.5,8.6,77,8.6,66.48,8.6,61.54,9.45,60.68,11.39Z" transform="translate(-16.93 -8.59)"/><path class="cls-1" d="M129.53,11c-1.07,1.28-1.93,9.22-2.36,17.37-.22,8.15-.85,15.44-1.5,15.87-.43.65-3.22-6.87-6-16.3-4.93-16.95-4.93-17.16-12-17.16h-7.08v30c0,28.53.22,30,4.29,30,3.87,0,4.29-1.72,4.72-22.09l.65-21.88,7.5,21.88c7.08,21,7.72,22.09,13.3,22.09h6.22l-.65-30.46c-.43-20.59-1.5-30.67-3.22-31.11A3.44,3.44,0,0,0,129.53,11ZM107,19.55c0,1.28-.85,1.5-2.15.85A5,5,0,0,1,102.71,17c0-1.28,1.07-1.5,2.15-.85A4.39,4.39,0,0,1,107,19.55Z" transform="translate(-16.93 -8.59)"/><path class="cls-1" d="M143.48,12.68c0,3,1.72,4.5,6,4.93l5.78.65.65,26.16.65,26.4h10.95l-.65-26.4L166,18.26l6-.65c4.08-.43,5.8-1.93,5.8-4.93,0-3.65-1.72-4.07-17.16-4.07S143.48,9,143.48,12.68Zm17.38,30.88c-1.72,1.73-2.36,1.08-2.36-1.92,0-5.79,3-8.81,3.86-4.08A7.37,7.37,0,0,1,160.86,43.56Z" transform="translate(-16.93 -8.59)"/><path class="cls-1" d="M186,9.88c-1.07.85-1.72,15-1.72,31.32V70.8h5.15c4.72,0,5.37-1.07,6-9,.43-6.65,1.72-9.44,4.29-9.87,2.79-.65,4.5,1.72,6.43,9,2.15,8.15,3.43,9.87,7.5,9.87,5.79,0,6-2.57,1.72-15-2.79-7.94-2.79-9.44,0-13.52,4.93-6.87,4.29-23.59-1.07-28.32C209.76,9.88,188.74,6.88,186,9.88Zm21.45,18c.65,7.08-.22,10.08-3,12.22-7.5,5.58-9.44,3.43-9.44-10.3C195,17,195,17,201,17.6,206.12,18.25,206.76,19.11,207.4,27.9Zm-15,24.46c-1.5,1.72-3.22,2.57-3.65,2.36-1.07-1.28,2.15-5.37,4.29-5.37C194.1,49.36,193.89,50.64,192.39,52.36Zm21.23,10.3c-.65,1.72-1.28,1.07-1.28-1.28-.22-2.36.43-3.65,1.07-2.79C214.06,59.23,214.27,61.15,213.62,62.66Z" transform="translate(-16.93 -8.59)"/><path class="cls-1" d="M233.13,11c-7.08,2.57-7.94,6.43-7.5,32.17.43,23.39,2.15,26.6,14.37,28.74,10.52,1.73,16.09-1.28,19.09-10.29,2.36-7.08,1.93-40.54-.85-47C255.87,8.82,244.07,7.1,233.13,11Zm17.16,30.47.65,23.17-7.08-.65-7.08-.65-.65-20.17c-.65-24.45-.22-26.39,7.5-25.52l6,.65ZM231.85,25.76c.65,3.65.43,7.08-.43,7.5-.65.43-1.5-2.57-1.72-6.65C229.06,17.6,230.56,17,231.85,25.76Z" transform="translate(-16.93 -8.59)"/><path class="cls-1" d="M275.4,11c-6.87,4.29-7.5,6.22-7.5,29,0,25.52,2.36,30,16.09,32.17,6.87.85,9.44.22,13.52-3.43,4.29-4.07,4.72-6.43,4.72-28.74,0-18.66-.65-24.89-3.22-27C294.49,9.24,280.34,8.17,275.4,11Zm17.16,29.82V63.3l-6.87.65-7.08.65V42.29c0-12.22.65-22.95,1.5-23.81s4.07-1.28,7.08-.85C292.56,18.25,292.56,18.25,292.56,40.77ZM273.69,27.26c-.65,2.15-1.07.85-1.07-2.57,0-3.65.43-5.15,1.07-3.87A16.2,16.2,0,0,1,273.69,27.26Z" transform="translate(-16.93 -8.59)"/><path class="cls-1" d="M311.65,11.39c-.43,1.5-.65,15.66-.43,31.54.65,25.52,1.07,29,4.5,29.6,3.22.65,3.65-1.5,3.65-21.24q0-39.25,7.72.65c3.43,17.16,4.07,18.87,8.58,18.87,5.58,0,6-1.07,9.65-24,1.5-9.22,3.22-16.09,3.87-15.44s.85,9.65.65,20.37l-.65,19.09h10.95V8.59h-7.3c-8.58,0-8.58.22-12.22,23.59-3.43,23-5.15,24.45-8.37,7.3-5.15-29.17-5.79-30.89-13.09-30.89C315.72,8.6,312.29,9.88,311.65,11.39ZM318.3,18c0,3.22-.85,4.5-1.93,3.43s-1.28-3.43-.65-5.15C317.65,11.6,318.3,12,318.3,18Zm38.18,47.84c-.65,1.5-2.15,2.79-3.22,2.79-1.28,0-1.5-1.5-.85-3.43a39.11,39.11,0,0,0,1.5-6.87c0-2.79.43-2.79,1.72.65A11.85,11.85,0,0,1,356.48,65.88Z" transform="translate(-16.93 -8.59)"/><path class="cls-1" d="M373.14,26.73c-1.61,1.13-2.25,7.08-2.41,22.52-.16,11.58.16,21.56,1,22.2,1.45,1.45,15.28,1.45,20.11,0,5.79-1.93,7.56-14.15,2.41-17.86-1.93-1.45-1.93-2.25.16-6.44,3.21-6.28,3.21-15.93,0-18.66C391.32,26.09,376,24.8,373.14,26.73Zm15.77,8.37c1.13,1.93,1.13,5.15.32,8.36-1,4.19-2.25,5.47-5.63,5.79-4.19.49-4.34.32-4.34-8.36s.16-9,4-9A6.52,6.52,0,0,1,388.91,35.1Zm6.43,1.45c0,1.77-.64,3.7-1.61,4.19s-1.61-.8-1.61-3.05.8-4.19,1.61-4.19C394.7,33.49,395.34,34.94,395.34,36.55ZM375.55,48.29c-.49,1.29-1,.8-1-1-.16-1.77.32-2.74.8-2.09A3.25,3.25,0,0,1,375.55,48.29Zm2.73,4.19c.32.64-.64,1.45-2.41,1.45-1.77.16-2.74-.32-2.25-1.29A2.7,2.7,0,0,1,378.28,52.48Zm10.46,6.59c2.25,4.19-1.29,8.69-6.28,7.89-4-.49-5.79-4.34-4.19-8.69C379.57,55.05,386.81,55.53,388.74,59.07Z" transform="translate(-16.93 -8.59)"/><path class="cls-1" d="M408.85,27.06c-4.5,1.77-5.63,4.83-6.6,18.5-1,14,.81,21.39,6.44,25.41,3.7,2.9,5,3,10.78,1.29,7.08-2.09,7.89-3.21,8.53-10.78.32-3.7-.32-4.66-2.9-4.66-2.25,0-3.38,1.29-4,4.83-1,5.31-5.15,7.08-8.85,4-2.9-2.41-3.38-25.74-.8-30.73,2.57-4.83,8-3.86,10.14,1.77,1.13,3,2.9,4.83,4.83,4.83,2.74,0,3.05-.8,2.09-5.31C426.71,27.21,418.34,23.19,408.85,27.06Zm-2.25,15.6c-1.45,2.41-1.61,1.93-1.29-2.74.49-7.4,1.93-10,2.57-4.5A13,13,0,0,1,406.6,42.66ZM425.9,61.8c0,1.29-1.29,3.7-2.74,5.15-2.58,2.57-2.58,2.57-1.61-.16a17.6,17.6,0,0,0,1.13-5.31c0-1.29.8-2.25,1.61-2.25C425.26,59.23,425.9,60.35,425.9,61.8Z" transform="translate(-16.93 -8.59)"/><path class="cls-1" d="M456.63,28.51c-1,1.76-1.77,8.53-1.77,15l-.16,11.75-4.5-13.69c-4.19-13-4.66-13.68-9.49-14.14l-4.83-.49-.64,11.73c-.32,6.44-.32,16.58,0,22.53.49,9.49.8,10.94,3.54,10.94,2.9,0,3.21-1.45,3.54-16.57l.49-16.41,5.63,16.41c5.31,15.77,5.79,16.57,10,16.57h4.66l-.49-22.84C462.1,26.41,460.5,20.94,456.63,28.51Zm-16.25,5.15a1.49,1.49,0,0,1-1.61,1.45c-.8,0-1.61-1.14-1.61-2.57s.8-1.93,1.61-1.45A3,3,0,0,1,440.38,33.66Z" transform="translate(-16.93 -8.59)"/></svg>