<?xml version="1.0" encoding="utf-8"?>
<!-- Generator: Adobe Illustrator 23.0.0, SVG Export Plug-In . SVG Version: 6.00 Build 0)  -->
<svg version="1.1" id="Capa_1" xmlns="http://www.w3.org/2000/svg" xmlns:xlink="http://www.w3.org/1999/xlink" x="0px" y="0px"
	 viewBox="0 0 480 80" style="enable-background:new 0 0 480 80;" xml:space="preserve">
<style type="text/css">
	.st0{fill:#1E1B4B;}
</style>
<g transform="translate(0,80) scale(0.1,-0.1)">
	<path class="st0" d="M97.3,703.3c-8.3-6.3-14.6-144-14.6-302.6V110.7l58.4,6.3c50.1,6.3,56.3,14.6,56.3,89.7
		c0,62.6,8.3,85.6,35.5,89.7c29.2,6.3,43.8-16.7,62.6-87.6c20.9-79.3,33.4-96,73-96c58.4,0,62.6,50.1,16.7,158.6
		c-27.1,66.8-27.1,79.3,0,118.9c18.8,27.1,31.3,91.8,31.3,156.5c0,106.4-2.1,112.7-73,141.9C270.5,717.9,120.2,728.3,97.3,703.3z
		 M314.3,588.5c4.2-100.2-6.3-152.3-39.6-177.4c-68.9-54.3-87.6-33.4-87.6,98.1v125.2h62.6C299.7,634.4,312.2,626.1,314.3,588.5z
		 M395.7,530.1c0-10.4-10.4-20.9-23-20.9c-10.4,0-14.6,10.4-8.3,20.9c6.3,12.5,16.7,20.9,23,20.9C391.5,551,395.7,542.6,395.7,530.1
		z M170.3,300.6c-25-25-45.9-37.6-45.9-29.2c0,20.9,71,87.6,81.4,79.3C212,346.5,195.3,323.5,170.3,300.6z"/>
	<path class="st0" d="M508.3,690.8c-4.2-14.6-6.3-152.3-4.2-306.8l6.3-277.5l52.2-6.3C662.8,89.8,813,116.9,813,146.1
		c0,16.7-33.4,29.2-98.1,33.4c-85.6,6.3-100.2,12.5-106.4,54.3c-10.4,66.8,31.3,108.5,102.3,108.5c39.6,0,60.5,10.4,60.5,31.3
		c0,23-23,31.3-83.5,31.3h-83.5v114.8v114.8l89.7,2.1c48,2.1,93.9,2.1,104.3,0c8.3,0,14.6,16.7,14.6,39.6
		c0,37.6-14.6,41.7-146.1,41.7C564.7,717.9,516.7,709.6,508.3,690.8z"/>
	<path class="st0" d="M1178.2,695c-10.4-12.5-18.8-89.7-23-169c-2.1-79.3-8.3-150.2-14.6-154.4c-4.2-6.3-31.3,66.8-58.4,158.6
		c-48,164.9-48,166.9-116.9,166.9h-68.9V404.9c0-277.5,2.1-292.1,41.7-292.1c37.6,0,41.7,16.7,45.9,214.9l6.3,212.9l73-212.9
		c68.9-204.5,75.1-214.9,129.4-214.9h60.5l-6.3,296.3c-4.2,200.3-14.6,298.4-31.3,302.6C1203.2,715.8,1186.5,709.6,1178.2,695z
		 M959.1,611.5c0-12.5-8.3-14.6-20.9-8.3c-10.4,6.3-20.9,23-20.9,33.4c0,12.5,10.4,14.6,20.9,8.3
		C950.7,638.6,959.1,621.9,959.1,611.5z"/>
	<path class="st0" d="M1313.8,678.3c0-29.2,16.7-43.8,58.4-48l56.3-6.3l6.3-254.6l6.3-256.7h54.3h52.2l-6.3,256.7l-8.3,254.6
		l58.4,6.3c39.6,4.2,56.3,18.8,56.3,48c0,35.5-16.7,39.6-166.9,39.6S1313.8,713.7,1313.8,678.3z M1482.9,377.8
		c-16.7-16.7-23-10.4-23,18.8c0,56.3,29.2,85.6,37.6,39.6C1501.6,417.4,1495.4,390.3,1482.9,377.8z"/>
	<path class="st0" d="M1727,705.4c-10.4-8.3-16.7-146.1-16.7-304.7v-288h50.1c45.9,0,52.2,10.4,58.4,87.6
		c4.2,64.7,16.7,91.8,41.7,96c27.1,6.3,43.8-16.7,62.6-87.6c20.9-79.3,33.4-96,73-96c56.3,0,58.4,25,16.7,146.1
		c-27.1,77.2-27.1,91.8,0,131.5c48,66.8,41.7,229.5-10.4,275.5C1958.6,705.4,1754.1,734.6,1727,705.4z M1935.7,530.1
		c6.3-68.9-2.1-98.1-29.2-118.9c-73-54.3-91.8-33.4-91.8,100.2c0,125.2,0,125.2,58.4,118.9C1923.2,624,1929.4,615.7,1935.7,530.1z
		 M1789.6,292.2c-14.6-16.7-31.3-25-35.5-23c-10.4,12.5,20.9,52.2,41.7,52.2C1806.3,321.4,1804.2,308.9,1789.6,292.2z M1996.2,192
		c-6.3-16.7-12.5-10.4-12.5,12.5c-2.1,23,4.2,35.5,10.4,27.1C2000.4,225.4,2002.5,206.7,1996.2,192z"/>
	<path class="st0" d="M2186.1,695c-68.9-25-77.2-62.6-73-313c4.2-227.5,20.9-258.8,139.8-279.6c102.3-16.7,156.5,12.5,185.7,100.2
		c23,68.9,18.8,394.4-8.3,457C2407.3,715.8,2292.5,732.5,2186.1,695z M2353,398.6l6.3-225.4l-68.9,6.3l-68.9,6.3l-6.3,196.2
		c-6.3,237.9-2.1,256.7,73,248.3l58.4-6.3L2353,398.6z M2173.6,551c6.3-35.5,4.2-68.9-4.2-73c-6.3-4.2-14.6,25-16.7,64.7
		C2146.5,630.3,2161.1,636.5,2173.6,551z"/>
	<path class="st0" d="M2597.2,695c-66.8-41.7-73-60.5-73-281.7c0-248.3,23-292.1,156.5-313c66.8-8.3,91.8-2.1,131.5,33.4
		c41.7,39.6,45.9,62.6,45.9,279.6c0,181.5-6.3,242.1-31.3,262.9C2782.9,711.7,2645.2,722.1,2597.2,695z M2764.1,404.9V185.8
		l-66.8-6.3l-68.9-6.3v217c0,118.9,6.3,223.3,14.6,231.6c8.3,8.3,39.6,12.5,68.9,8.3C2764.1,624,2764.1,624,2764.1,404.9z
		 M2580.5,536.4c-6.3-20.9-10.4-8.3-10.4,25c0,35.5,4.2,50.1,10.4,37.6C2584.7,584.4,2584.7,555.1,2580.5,536.4z"/>
	<path class="st0" d="M2949.9,690.8c-4.2-14.6-6.3-152.3-4.2-306.8c6.3-248.3,10.4-281.7,43.8-288c31.3-6.3,35.5,14.6,35.5,206.6
		c0,254.6,25,252.5,75.1-6.3c33.4-166.9,39.6-183.6,83.5-183.6c54.3,0,58.4,10.4,93.9,233.7c14.6,89.7,31.3,156.5,37.6,150.2
		c6.3-6.3,8.3-93.9,6.3-198.2l-6.3-185.7h52.2h54.3v302.6v302.6h-71c-83.5,0-83.5-2.1-118.9-229.5c-33.4-223.3-50.1-237.9-81.4-71
		c-50.1,283.8-56.3,300.5-127.3,300.5C2989.5,717.9,2956.1,705.4,2949.9,690.8z M3014.6,626.1c0-31.3-8.3-43.8-18.8-33.4
		s-12.5,33.4-6.3,50.1C3008.3,688.7,3014.6,684.5,3014.6,626.1z M3386,160.7c-6.3-14.6-20.9-27.1-31.3-27.1
		c-12.5,0-14.6,14.6-8.3,33.4c6.3,18.8,12.5,48,14.6,66.8c0,27.1,4.2,27.1,16.7-6.3C3388.1,204.6,3390.2,173.3,3386,160.7z"/>
	<path class="st0" d="M3550.9,701.2c-20.9-14.6-29.2-91.8-31.3-292.1c-2.1-150.2,2.1-279.6,12.5-288c18.8-18.8,198.2-18.8,260.8,0
		c75.1,25,98.1,183.6,31.3,231.6c-25,18.8-25,29.2,2.1,83.5c41.7,81.4,41.7,206.6,0,242.1C3786.7,709.6,3588.4,726.3,3550.9,701.2z
		 M3755.4,592.7c14.6-25,14.6-66.8,4.2-108.5c-12.5-54.3-29.2-71-73-75.1c-54.3-6.3-56.3-4.2-56.3,108.5
		c0,110.6,2.1,116.9,52.2,116.9C3711.5,634.4,3742.8,617.7,3755.4,592.7z M3838.8,573.9c0-23-8.3-48-20.9-54.3
		c-12.5-8.3-20.9,10.4-20.9,39.6s10.4,54.3,20.9,54.3C3830.5,613.6,3838.8,594.8,3838.8,573.9z M3582.2,421.6
		c-6.3-16.7-12.5-10.4-12.5,12.5c-2.1,23,4.2,35.5,10.4,27.1C3586.3,455,3588.4,436.2,3582.2,421.6z M3617.6,367.3
		c4.2-8.3-8.3-18.8-31.3-18.8c-23-2.1-35.5,4.2-29.2,16.7C3571.7,388.2,3603,390.3,3617.6,367.3z M3753.3,281.8
		c29.2-54.3-16.7-112.7-81.4-102.3c-52.2,6.3-75.1,56.3-54.3,112.7C3634.3,333.9,3728.2,327.7,3753.3,281.8z"/>
	<path class="st0" d="M4014.1,697c-58.4-23-73-62.6-85.6-240C3916,275.5,3939,179.5,4012,127.4c48-37.6,64.7-39.6,139.8-16.7
		c91.8,27.1,102.3,41.7,110.6,139.8c4.2,48-4.2,60.5-37.6,60.5c-29.2,0-43.8-16.7-52.2-62.6c-12.5-68.9-66.8-91.8-114.8-52.2
		c-37.6,31.3-43.8,333.9-10.4,398.6c33.4,62.6,104.3,50.1,131.5-23c14.6-39.6,37.6-62.6,62.6-62.6c35.5,0,39.6,10.4,27.1,68.9
		C4245.7,695,4137.2,747.1,4014.1,697z M3984.9,494.6c-18.8-31.3-20.9-25-16.7,35.5c6.3,96,25,129.4,33.4,58.4
		C4005.8,557.2,3997.4,515.5,3984.9,494.6z M4235.3,246.3c0-16.7-16.7-48-35.5-66.8c-33.4-33.4-33.4-33.4-20.9,2.1
		c8.3,20.9,14.6,52.2,14.6,68.9s10.4,29.2,20.9,29.2C4227,279.7,4235.3,265.1,4235.3,246.3z"/>
	<path class="st0" d="M4633.9,678.3c-12.5-23-23-110.6-23-194.1l-2.1-152.3l-58.4,177.4c-54.3,169-60.5,177.4-123.1,183.6l-62.6,6.3
		l-8.3-152.3c-4.2-83.5-4.2-214.9,0-292.1c6.3-123.1,10.4-141.9,45.9-141.9c37.6,0,41.7,18.8,45.9,214.9l6.3,212.9l73-212.9
		c68.9-204.5,75.1-214.9,129.4-214.9h60.5l-6.3,296.3C4704.8,705.4,4684,776.3,4633.9,678.3z M4423.1,611.5
		c0-10.4-8.3-18.8-20.9-18.8c-10.4,0-20.9,14.6-20.9,33.4c0,16.7,10.4,25,20.9,18.8C4414.8,638.6,4423.1,624,4423.1,611.5z"/>
</g>
</svg>
