<?xml version="1.0" encoding="utf-8"?>
<!-- Generator: Adobe Illustrator 23.0.0, SVG Export Plug-In . SVG Version: 6.00 Build 0)  -->
<svg version="1.1" id="Capa_1" xmlns="http://www.w3.org/2000/svg" xmlns:xlink="http://www.w3.org/1999/xlink" x="0px" y="0px"
	 viewBox="0 0 480 80" style="enable-background:new 0 0 480 80;" xml:space="preserve">
<style type="text/css">
	.st0{fill:#1E1B4B;}
</style>
<g transform="translate(0,80) scale(0.1,-0.1)">
	<path class="st0" d="M184.3,699.8c-8.5-6.5-15-148-15-311.1V90.6l60,6.5c51.5,6.5,57.9,15,57.9,92.2c0,64.3,8.5,88,36.5,92.2
		c30,6.5,45-17.2,64.3-90c21.5-81.5,34.3-98.7,75-98.7c60,0,64.3,51.5,17.2,163c-27.9,68.7-27.9,81.5,0,122.2
		c19.3,27.9,32.2,94.4,32.2,160.9c0,109.4-2.2,115.8-75,145.9C362.3,714.8,207.8,725.5,184.3,699.8z M407.4,581.8
		c4.3-103-6.5-156.6-40.7-182.4c-70.8-55.8-90-34.3-90,100.8V629H341C392.3,629,405.2,620.4,407.4,581.8z M491,521.8
		c0-10.7-10.7-21.5-23.6-21.5c-10.7,0-15,10.7-8.5,21.5c6.5,12.8,17.2,21.5,23.6,21.5C486.7,543.2,491,534.6,491,521.8z
		 M259.3,285.8c-25.7-25.7-47.2-38.7-47.2-30c0,21.5,73,90,83.7,81.5C302.2,333,285,309.4,259.3,285.8z"/>
	<path class="st0" d="M606.8,686.9c-4.3-15-6.5-156.6-4.3-315.4l6.5-285.3l53.7-6.5C765.6,69.2,920,97,920,127
		c0,17.2-34.3,30-100.8,34.3c-88,6.5-103,12.8-109.4,55.8c-10.7,68.7,32.2,111.5,105.2,111.5c40.7,0,62.2,10.7,62.2,32.2
		c0,23.6-23.6,32.2-85.8,32.2h-85.8v118v118l92.2,2.2c49.3,2.2,96.5,2.2,107.2,0c8.5,0,15,17.2,15,40.7c0,38.7-15,42.9-150.2,42.9
		C664.8,714.8,615.4,706.3,606.8,686.9z"/>
	<path class="st0" d="M1295.4,691.3c-10.7-12.8-19.3-92.2-23.6-173.7c-2.2-81.5-8.5-154.4-15-158.7c-4.3-6.5-32.2,68.7-60,163
		c-49.3,169.5-49.3,171.6-120.2,171.6h-70.8V393.1c0-285.3,2.2-300.3,42.9-300.3c38.7,0,42.9,17.2,47.2,220.9l6.5,218.8l75-218.8
		c70.8-210.2,77.2-220.9,133-220.9h62.2l-6.5,304.6c-4.3,205.9-15,306.7-32.2,311.1C1321.1,712.6,1303.9,706.3,1295.4,691.3z
		 M1070.2,605.4c0-12.8-8.5-15-21.5-8.5c-10.7,6.5-21.5,23.6-21.5,34.3c0,12.8,10.7,15,21.5,8.5
		C1061.5,633.3,1070.2,616.1,1070.2,605.4z"/>
	<path class="st0" d="M1434.8,674.1c0-30,17.2-45,60-49.3l57.9-6.5l6.5-261.7l6.5-263.9h55.8h53.7l-6.5,263.9l-8.5,261.7l60,6.5
		c40.7,4.3,57.9,19.3,57.9,49.3c0,36.5-17.2,40.7-171.6,40.7S1434.8,710.5,1434.8,674.1z M1608.6,365.2
		c-17.2-17.2-23.6-10.7-23.6,19.3c0,57.9,30,88,38.7,40.7C1627.8,405.9,1621.4,378,1608.6,365.2z"/>
	<path class="st0" d="M1859.5,702c-10.7-8.5-17.2-150.2-17.2-313.2v-296h51.5c47.2,0,53.7,10.7,60,90c4.3,66.5,17.2,94.4,42.9,98.7
		c27.9,6.5,45-17.2,64.3-90c21.5-81.5,34.3-98.7,75-98.7c57.9,0,60,25.7,17.2,150.2c-27.9,79.4-27.9,94.4,0,135.2
		c49.3,68.7,42.9,235.9-10.7,283.2C2097.6,702,1887.4,732,1859.5,702z M2074,521.8c6.5-70.8-2.2-100.8-30-122.2
		c-75-55.8-94.4-34.3-94.4,103c0,128.7,0,128.7,60,122.2C2061.2,618.3,2067.6,609.7,2074,521.8z M1923.9,277.2
		c-15-17.2-32.2-25.7-36.5-23.6c-10.7,12.8,21.5,53.7,42.9,53.7C1941,307.2,1938.9,294.4,1923.9,277.2z M2136.2,174.2
		c-6.5-17.2-12.8-10.7-12.8,12.8c-2.2,23.6,4.3,36.5,10.7,27.9C2140.6,208.5,2142.7,189.3,2136.2,174.2z"/>
	<path class="st0" d="M2331.4,691.3c-70.8-25.7-79.4-64.3-75-321.7c4.3-233.9,21.5-266,143.7-287.4C2505.3,64.9,2561,95,2591,185.1
		c23.6,70.8,19.3,405.4-8.5,469.8C2558.8,712.6,2440.8,729.8,2331.4,691.3z M2503,386.6l6.5-231.7l-70.8,6.5l-70.8,6.5l-6.5,201.7
		c-6.5,244.5-2.2,263.9,75,255.2l60-6.5L2503,386.6z M2318.6,543.2c6.5-36.5,4.3-70.8-4.3-75c-6.5-4.3-15,25.7-17.2,66.5
		C2290.7,624.8,2305.7,631.1,2318.6,543.2z"/>
	<path class="st0" d="M2754,691.3c-68.7-42.9-75-62.2-75-289.6c0-255.2,23.6-300.3,160.9-321.7c68.7-8.5,94.4-2.2,135.2,34.3
		c42.9,40.7,47.2,64.3,47.2,287.4c0,186.6-6.5,248.9-32.2,270.2C2944.9,708.4,2803.4,719.1,2754,691.3z M2925.6,393.1V167.8
		l-68.7-6.5l-70.8-6.5v223.1c0,122.2,6.5,229.5,15,238.1c8.5,8.5,40.7,12.8,70.8,8.5C2925.6,618.3,2925.6,618.3,2925.6,393.1z
		 M2736.9,528.2c-6.5-21.5-10.7-8.5-10.7,25.7c0,36.5,4.3,51.5,10.7,38.7C2741.2,577.6,2741.2,547.5,2736.9,528.2z"/>
	<path class="st0" d="M3116.6,686.9c-4.3-15-6.5-156.6-4.3-315.4c6.5-255.2,10.7-289.6,45-296c32.2-6.5,36.5,15,36.5,212.4
		c0,261.7,25.7,259.6,77.2-6.5c34.3-171.6,40.7-188.7,85.8-188.7c55.8,0,60,10.7,96.5,240.2c15,92.2,32.2,160.9,38.7,154.4
		s8.5-96.5,6.5-203.7L3492,92.7h53.7h55.8v311.1v311.1h-73c-85.8,0-85.8-2.2-122.2-235.9c-34.3-229.5-51.5-244.5-83.7-73
		c-51.5,291.7-57.9,308.9-130.9,308.9C3157.3,714.8,3123,702,3116.6,686.9z M3183.1,620.4c0-32.2-8.5-45-19.3-34.3
		c-10.8,10.7-12.8,34.3-6.5,51.5C3176.6,684.8,3183.1,680.5,3183.1,620.4z M3564.9,142c-6.5-15-21.5-27.9-32.2-27.9
		c-12.8,0-15,15-8.5,34.3s12.8,49.3,15,68.7c0,27.9,4.3,27.9,17.2-6.5C3567,187.2,3569.2,155,3564.9,142z"/>
	<path class="st0" d="M3731.4,533.5c-16.1-11.3-22.5-70.8-24.1-225.2c-1.6-115.8,1.6-215.6,9.6-222c14.5-14.5,152.8-14.5,201.1,0
		c57.9,19.3,75.6,141.5,24.1,178.6c-19.3,14.5-19.3,22.5,1.6,64.4c32.1,62.8,32.1,159.3,0,186.6
		C3913.2,539.9,3760.3,552.8,3731.4,533.5z M3889.1,449.8c11.3-19.3,11.3-51.5,3.2-83.6c-9.6-41.9-22.5-54.7-56.3-57.9
		c-41.9-4.9-43.4-3.2-43.4,83.6c0,85.3,1.6,90.1,40.2,90.1C3855.2,482,3879.3,469.1,3889.1,449.8z M3953.4,435.3
		c0-17.7-6.4-37-16.1-41.9c-9.6-6.4-16.1,8-16.1,30.5c0,22.5,8,41.9,16.1,41.9C3947,465.9,3953.4,451.4,3953.4,435.3z M3755.5,317.9
		c-4.9-12.9-9.6-8-9.6,9.6c-1.6,17.7,3.2,27.4,8,20.9C3758.7,343.7,3760.3,329.2,3755.5,317.9z M3782.8,276
		c3.2-6.4-6.4-14.5-24.1-14.5c-17.7-1.6-27.4,3.2-22.5,12.9C3747.4,292.2,3771.6,293.8,3782.8,276z M3887.4,210.1
		c22.5-41.9-12.9-86.9-62.8-78.9c-40.2,4.9-57.9,43.4-41.9,86.9C3795.7,250.3,3868.1,245.5,3887.4,210.1z"/>
	<path class="st0" d="M4088.5,530.2c-45-17.7-56.3-48.3-66-185c-9.6-139.9,8.1-213.9,64.4-254.1c37-29,49.9-30.5,107.8-12.9
		c70.8,20.9,78.9,32.1,85.3,107.8c3.2,37-3.2,46.6-29,46.6c-22.5,0-33.8-12.9-40.2-48.3c-9.6-53.1-51.5-70.8-88.5-40.2
		c-29,24.1-33.8,257.4-8,307.3c25.7,48.3,80.4,38.6,101.4-17.7c11.3-30.5,29-48.3,48.3-48.3c27.4,0,30.5,8,20.9,53.1
		C4267.1,528.7,4183.4,568.9,4088.5,530.2z M4066,374.2c-14.5-24.1-16.1-19.3-12.9,27.4c4.9,74,19.3,99.8,25.7,45
		C4082.1,422.5,4075.6,390.3,4066,374.2z M4259,182.8c0-12.9-12.9-37-27.4-51.5c-25.8-25.7-25.8-25.7-16.1,1.6
		c6.4,16.1,11.3,40.2,11.3,53.1s8,22.5,16.1,22.5C4252.6,208.5,4259,197.3,4259,182.8z"/>
	<path class="st0" d="M4566.3,515.8c-9.6-17.7-17.7-85.3-17.7-149.6l-1.6-117.4l-45,136.8c-41.9,130.3-46.6,136.8-94.9,141.5
		l-48.3,4.9l-6.4-117.4c-3.2-64.4-3.2-165.7,0-225.2c4.9-94.9,8-109.4,35.4-109.4c29,0,32.1,14.5,35.4,165.7l4.9,164.1l56.3-164.1
		c53.1-157.7,57.9-165.7,99.8-165.7h46.6l-4.9,228.4C4621,536.7,4605,591.4,4566.3,515.8z M4403.8,464.3c0-8-6.4-14.5-16.1-14.5
		c-8,0-16.1,11.3-16.1,25.7c0,12.9,8,19.3,16.1,14.5C4397.4,485.2,4403.8,474,4403.8,464.3z"/>
</g>
</svg>
