<svg version="1.0" xmlns="http://www.w3.org/2000/svg"
 width="480pt" height="80pt" viewBox="0 0 480 80"
 preserveAspectRatio="xMidYMid meet">
    <g transform="translate(0,80) scale(0.1,-0.1)"
    fill="#1e1b4b" stroke="none">
        <path d="M1297 543 c-4 -3 -7 -69 -7 -145 l0 -139 28 3 c24 3 27 7 27 43 0 30
            4 41 17 43 14 3 21 -8 30 -42 10 -38 16 -46 35 -46 28 0 30 24 8 76 -13 32
            -13 38 0 57 9 13 15 44 15 75 0 51 -1 54 -35 68 -35 14 -107 19 -118 7z m104
            -55 c2 -48 -3 -73 -19 -85 -33 -26 -42 -16 -42 47 l0 60 30 0 c24 0 30 -4 31
            -22z m39 -28 c0 -5 -5 -10 -11 -10 -5 0 -7 5 -4 10 3 6 8 10 11 10 2 0 4 -4 4
            -10z m-108 -110 c-12 -12 -22 -18 -22 -14 0 10 34 42 39 38 3 -2 -5 -13 -17
            -24z"/>
        <path d="M1494 537 c-2 -7 -3 -73 -2 -147 l3 -133 25 -3 c48 -5 120 8 120 22
            0 8 -16 14 -47 16 -41 3 -48 6 -51 26 -5 32 15 52 49 52 19 0 29 5 29 15 0 11
            -11 15 -40 15 l-40 0 0 55 0 55 43 1 c23 1 45 1 50 0 4 0 7 8 7 19 0 18 -7 20
            -70 20 -49 0 -72 -4 -76 -13z"/>
        <path d="M1815 539 c-5 -6 -9 -43 -11 -81 -1 -38 -4 -72 -7 -74 -2 -3 -15 32
            -28 76 -23 79 -23 80 -56 80 l-33 0 0 -140 c0 -133 1 -140 20 -140 18 0 20 8
            22 103 l3 102 35 -102 c33 -98 36 -103 62 -103 l29 0 -3 142 c-2 96 -7 143
            -15 145 -6 2 -14 -1 -18 -8z m-105 -40 c0 -6 -4 -7 -10 -4 -5 3 -10 11 -10 16
            0 6 5 7 10 4 6 -3 10 -11 10 -16z"/>
        <path d="M1880 531 c0 -14 8 -21 28 -23 l27 -3 3 -122 3 -123 26 0 25 0 -3
            123 -4 122 28 3 c19 2 27 9 27 23 0 17 -8 19 -80 19 -72 0 -80 -2 -80 -19z
            m81 -144 c-8 -8 -11 -5 -11 9 0 27 14 41 18 19 2 -9 -1 -22 -7 -28z"/>
        <path d="M2078 544 c-5 -4 -8 -70 -8 -146 l0 -138 24 0 c22 0 25 5 28 42 2 31
            8 44 20 46 13 3 21 -8 30 -42 10 -38 16 -46 35 -46 27 0 28 12 8 70 -13 37
            -13 44 0 63 23 32 20 110 -5 132 -21 19 -119 33 -132 19z m100 -84 c3 -33 -1
            -47 -14 -57 -35 -26 -44 -16 -44 48 0 60 0 60 28 57 24 -3 27 -7 30 -48z m-70
            -114 c-7 -8 -15 -12 -17 -11 -5 6 10 25 20 25 5 0 4 -6 -3 -14z m99 -48 c-3
            -8 -6 -5 -6 6 -1 11 2 17 5 13 3 -3 4 -12 1 -19z"/>
        <path d="M2298 539 c-33 -12 -37 -30 -35 -150 2 -109 10 -124 67 -134 49 -8
            75 6 89 48 11 33 9 189 -4 219 -11 27 -66 35 -117 17z m80 -142 l3 -108 -33 3
            -33 3 -3 94 c-3 114 -1 123 35 119 l28 -3 3 -108z m-86 73 c3 -17 2 -33 -2
            -35 -3 -2 -7 12 -8 31 -3 42 4 45 10 4z"/>
        <path d="M2495 539 c-32 -20 -35 -29 -35 -135 0 -119 11 -140 75 -150 32 -4
            44 -1 63 16 20 19 22 30 22 134 0 87 -3 116 -15 126 -21 17 -87 22 -110 9z
            m80 -139 l0 -105 -32 -3 -33 -3 0 104 c0 57 3 107 7 111 4 4 19 6 33 4 25 -3
            25 -3 25 -108z m-88 63 c-3 -10 -5 -4 -5 12 0 17 2 24 5 18 2 -7 2 -21 0 -30z"/>
        <path d="M2664 537 c-2 -7 -3 -73 -2 -147 3 -119 5 -135 21 -138 15 -3 17 7
            17 99 0 122 12 121 36 -3 16 -80 19 -88 40 -88 26 0 28 5 45 112 7 43 15 75
            18 72 3 -3 4 -45 3 -95 l-3 -89 25 0 26 0 0 145 0 145 -34 0 c-40 0 -40 -1
            -57 -110 -16 -107 -24 -114 -39 -34 -24 136 -27 144 -61 144 -16 0 -32 -6 -35
            -13z m31 -31 c0 -15 -4 -21 -9 -16 -5 5 -6 16 -3 24 9 22 12 20 12 -8z m178
            -223 c-3 -7 -10 -13 -15 -13 -6 0 -7 7 -4 16 3 9 6 23 7 32 0 13 2 13 8 -3 5
            -11 6 -26 4 -32z"/>
        <path d="M2952 542 c-10 -7 -14 -44 -15 -140 -1 -72 1 -134 6 -138 9 -9 95 -9
            125 0 36 12 47 88 15 111 -12 9 -12 14 1 40 20 39 20 99 0 116 -19 15 -114 23
            -132 11z m98 -52 c7 -12 7 -32 2 -52 -6 -26 -14 -34 -35 -36 -26 -3 -27 -2
            -27 52 0 53 1 56 25 56 14 0 29 -8 35 -20z m40 -9 c0 -11 -4 -23 -10 -26 -6
            -4 -10 5 -10 19 0 14 5 26 10 26 6 0 10 -9 10 -19z m-123 -73 c-3 -8 -6 -5 -6
            6 -1 11 2 17 5 13 3 -3 4 -12 1 -19z m17 -26 c2 -4 -4 -9 -15 -9 -11 -1 -17 2
            -14 8 7 11 22 12 29 1z m65 -41 c14 -26 -8 -54 -39 -49 -25 3 -36 27 -26 54 8
            20 53 17 65 -5z"/>
        <path d="M3174 540 c-28 -11 -35 -30 -41 -115 -6 -87 5 -133 40 -158 23 -18
            31 -19 67 -8 44 13 49 20 53 67 2 23 -2 29 -18 29 -14 0 -21 -8 -25 -30 -6
            -33 -32 -44 -55 -25 -18 15 -21 160 -5 191 16 30 50 24 63 -11 7 -19 18 -30
            30 -30 17 0 19 5 13 33 -11 56 -63 81 -122 57z m-14 -97 c-9 -15 -10 -12 -8
            17 3 46 12 62 16 28 2 -15 -2 -35 -8 -45z m120 -119 c0 -8 -8 -23 -17 -32 -16
            -16 -16 -16 -10 1 4 10 7 25 7 33 0 8 5 14 10 14 6 0 10 -7 10 -16z"/>
        <path d="M3471 531 c-6 -11 -11 -53 -11 -93 l-1 -73 -28 85 c-26 81 -29 85
            -59 88 l-30 3 -4 -73 c-2 -40 -2 -103 0 -140 3 -59 5 -68 22 -68 18 0 20 9 22
            103 l3 102 35 -102 c33 -98 36 -103 62 -103 l29 0 -3 142 c-3 142 -13 176 -37
            129z m-101 -32 c0 -5 -4 -9 -10 -9 -5 0 -10 7 -10 16 0 8 5 12 10 9 6 -3 10
            -10 10 -16z"/>
    </g>
</svg>
